<svg width="191" height="50" viewBox="0 0 191 50" fill="none" xmlns="http://www.w3.org/2000/svg">
<path d="M53.9853 5.98641C53.8732 6.09847 53.7391 6.1528 53.5795 6.1528H37.978C37.8184 6.1528 37.7386 6.2326 37.7386 6.39219V13.788C37.7386 13.9476 37.8184 14.0257 37.978 14.0257H48.2364C48.396 14.0257 48.5301 14.0817 48.6422 14.1921C48.7525 14.3041 48.8086 14.4383 48.8086 14.5979V19.2262C48.8086 19.3858 48.7525 19.5199 48.6422 19.632C48.5301 19.744 48.396 19.7983 48.2364 19.7983H37.978C37.8184 19.7983 37.7386 19.8781 37.7386 20.0377V33.2062C37.7386 33.3658 37.6826 33.4999 37.5722 33.612C37.4618 33.724 37.326 33.7784 37.1664 33.7784H31.5839C31.4243 33.7784 31.2902 33.7223 31.1781 33.612C31.066 33.5016 31.0117 33.3658 31.0117 33.2062V0.954012C31.0117 0.794415 31.0677 0.660284 31.1781 0.548226C31.2885 0.436169 31.4243 0.381836 31.5839 0.381836H53.5778C53.7374 0.381836 53.8715 0.437867 53.9836 0.548226C54.094 0.660284 54.15 0.794415 54.15 0.954012V5.58232C54.15 5.74192 54.094 5.87605 53.9836 5.98811L53.9853 5.98641Z" fill="#001E50"/>
<path d="M64.5766 32.7279C62.7158 31.7737 61.2675 30.4307 60.2352 28.6955C59.2012 26.962 58.6851 24.967 58.6851 22.7072V0.951078C58.6851 0.791481 58.7394 0.657354 58.8514 0.545296C58.9618 0.434937 59.0976 0.378906 59.2572 0.378906H64.8398C64.9977 0.378906 65.1335 0.434937 65.2455 0.545296C65.3559 0.657354 65.4119 0.791481 65.4119 0.951078V22.7547C65.4119 24.4407 65.9281 25.8007 66.9621 26.8347C67.9961 27.8686 69.3543 28.3848 71.042 28.3848C72.7297 28.3848 74.0879 27.8686 75.1219 26.8347C76.1559 25.8024 76.6721 24.4424 76.6721 22.7547V0.951078C76.6721 0.791481 76.7281 0.657354 76.8384 0.545296C76.9488 0.433239 77.0846 0.378906 77.2442 0.378906H82.8268C82.9864 0.378906 83.1205 0.434937 83.2325 0.545296C83.3429 0.657354 83.3989 0.791481 83.3989 0.951078V22.7072C83.3989 24.9653 82.8811 26.962 81.8488 28.6955C80.8148 30.429 79.3682 31.772 77.5074 32.7279C75.6466 33.6838 73.492 34.1591 71.042 34.1591C68.592 34.1591 66.4374 33.682 64.5766 32.7279Z" fill="#001E50"/>
<path d="M94.8952 32.9415C92.9868 32.1299 91.5148 30.9703 90.4825 29.4592C89.4485 27.9482 88.9324 26.1909 88.9324 24.1874V23.1382C88.9324 22.9786 88.9867 22.8444 89.0988 22.7324C89.2108 22.6203 89.3449 22.566 89.5045 22.566H94.9428C95.1007 22.566 95.2365 22.622 95.3485 22.7324C95.4589 22.8444 95.5149 22.9786 95.5149 23.1382V23.853C95.5149 25.1263 96.1024 26.1994 97.2807 27.0738C98.4573 27.9481 100.048 28.3862 102.052 28.3862C103.738 28.3862 104.994 28.028 105.821 27.3132C106.648 26.5984 107.062 25.7155 107.062 24.6645C107.062 23.9005 106.807 23.257 106.298 22.7324C105.789 22.2077 105.098 21.7476 104.223 21.3486C103.347 20.9514 101.957 20.4029 100.048 19.7034C97.9174 18.9717 96.1126 18.2246 94.6337 17.4606C93.1549 16.6966 91.9138 15.6558 90.9121 14.3349C89.9103 13.0156 89.4095 11.3857 89.4095 9.44509C89.4095 7.50445 89.9018 5.86774 90.8883 4.43646C91.873 3.00518 93.2415 1.90838 94.992 1.14435C96.7408 0.38032 98.7612 0 101.052 0C103.468 0 105.624 0.429553 107.517 1.28866C109.408 2.14777 110.887 3.34814 111.953 4.89148C113.018 6.43481 113.551 8.22434 113.551 10.2584V10.9748C113.551 11.1344 113.495 11.2686 113.385 11.3806C113.273 11.4927 113.139 11.547 112.979 11.547H107.492C107.332 11.547 107.198 11.491 107.086 11.3806C106.974 11.2703 106.919 11.1344 106.919 10.9748V10.5928C106.919 9.25663 106.371 8.12077 105.274 7.18187C104.177 6.24466 102.675 5.77436 100.766 5.77436C99.2706 5.77436 98.1025 6.09185 97.2603 6.72854C96.4165 7.36523 95.9954 8.23962 95.9954 9.3534C95.9954 10.1497 96.2416 10.8169 96.7357 11.3569C97.2281 11.8985 97.9598 12.3824 98.931 12.8119C99.9005 13.2415 101.403 13.8221 103.439 14.5539C105.697 15.3807 107.469 16.1125 108.758 16.7492C110.047 17.3859 111.206 18.3316 112.24 19.588C113.273 20.8444 113.791 22.4743 113.791 24.4778C113.791 27.4677 112.694 29.8294 110.498 31.5628C108.303 33.2963 105.33 34.1622 101.576 34.1622C99.0312 34.1622 96.8053 33.7565 94.8969 32.9449L94.8952 32.9415Z" fill="#001E50"/>
<path d="M119.87 33.6105C119.758 33.5001 119.704 33.3643 119.704 33.2047V0.952542C119.704 0.792945 119.76 0.658814 119.87 0.546756C119.981 0.434699 120.117 0.380371 120.276 0.380371H125.859C126.018 0.380371 126.153 0.436397 126.265 0.546756C126.375 0.658814 126.431 0.792945 126.431 0.952542V33.2047C126.431 33.3643 126.375 33.4984 126.265 33.6105C126.154 33.7226 126.018 33.7769 125.859 33.7769H120.276C120.117 33.7769 119.983 33.7209 119.87 33.6105Z" fill="#001E50"/>
<path d="M138.762 32.7751C136.869 31.7581 135.399 30.3336 134.35 28.505C133.301 26.6765 132.776 24.5694 132.776 22.184V11.9749C132.776 9.62166 133.301 7.53841 134.35 5.72512C135.399 3.91182 136.869 2.50432 138.762 1.50259C140.654 0.500864 142.842 0 145.323 0C147.804 0 150.038 0.500864 151.931 1.50259C153.822 2.50432 155.294 3.91182 156.344 5.72512C157.393 7.53841 157.918 9.62166 157.918 11.9749V22.184C157.918 24.5694 157.393 26.685 156.344 28.5288C155.294 30.3744 153.822 31.7972 151.931 32.7989C150.038 33.8006 147.836 34.3015 145.323 34.3015C142.81 34.3015 140.656 33.7921 138.762 32.7751ZM149.569 26.8598C150.651 25.7477 151.191 24.2672 151.191 22.4234V11.9273C151.191 10.0835 150.658 8.59617 149.593 7.4671C148.527 6.33804 147.104 5.77266 145.323 5.77266C143.542 5.77266 142.167 6.33804 141.1 7.4671C140.034 8.59617 139.503 10.0835 139.503 11.9273V22.4234C139.503 24.2689 140.034 25.7477 141.1 26.8598C142.165 27.9736 143.573 28.5288 145.323 28.5288C147.073 28.5288 148.488 27.9719 149.569 26.8598Z" fill="#001E50"/>
<path d="M183.609 0.546991C183.72 0.436631 183.856 0.380606 184.015 0.380606H189.598C189.757 0.380606 189.891 0.436631 190.004 0.546991C190.114 0.659048 190.17 0.79318 190.17 0.952777V33.205C190.17 33.3646 190.114 33.4987 190.004 33.6107C189.893 33.7228 189.757 33.7771 189.598 33.7771H184.207C183.89 33.7771 183.665 33.6498 183.54 33.3951L171.183 12.9752C171.118 12.8801 171.056 12.8411 170.993 12.8563C170.928 12.8733 170.898 12.9446 170.898 13.0703L170.993 33.2033C170.993 33.3629 170.937 33.497 170.826 33.609C170.716 33.7211 170.58 33.7754 170.421 33.7754H164.838C164.678 33.7754 164.544 33.7194 164.432 33.609C164.32 33.4987 164.266 33.3629 164.266 33.2033V0.951078C164.266 0.791481 164.322 0.657354 164.432 0.545296C164.543 0.433239 164.678 0.378906 164.838 0.378906H170.229C170.546 0.378906 170.769 0.506244 170.896 0.76092L183.205 21.0858C183.268 21.1808 183.333 21.2216 183.396 21.2046C183.458 21.1893 183.491 21.118 183.491 20.9907L183.443 0.952777C183.443 0.79318 183.499 0.659048 183.609 0.546991Z" fill="#001E50"/>
<path d="M12.4766 0.53806C12.5293 0.590693 12.5547 0.653511 12.5547 0.726518V2.90824C12.5547 2.98295 12.5293 3.04577 12.4766 3.09671C12.424 3.14764 12.3612 3.17481 12.2882 3.17481H8.30161C8.22691 3.17481 8.18956 3.21216 8.18956 3.28686V15.7796C8.18956 15.8543 8.16409 15.9171 8.11146 15.968C8.05882 16.019 7.99601 16.0461 7.923 16.0461H5.3185C5.24379 16.0461 5.18097 16.0207 5.13004 15.968C5.0774 15.9154 5.05194 15.8526 5.05194 15.7796V3.28686C5.05194 3.21216 5.01458 3.17481 4.93988 3.17481H1.06539C0.990681 3.17481 0.927863 3.14934 0.876928 3.09671C0.824294 3.04407 0.798828 2.98125 0.798828 2.90824V0.726518C0.798828 0.651813 0.824294 0.588995 0.876928 0.53806C0.929561 0.487125 0.992379 0.459961 1.06539 0.459961H12.2882C12.3629 0.459961 12.4257 0.485427 12.4766 0.53806Z" fill="#001E50"/>
<path d="M18.4955 12.8916L18.5431 12.8186C18.56 12.7864 18.5753 12.766 18.5923 12.7575L20.4463 10.1768L23.9541 4.93555C24.0135 4.84726 24.0288 4.76916 23.9983 4.70125C23.9677 4.63503 23.9015 4.60107 23.7979 4.60107H20.8148C20.6807 4.60107 20.5771 4.6605 20.5024 4.77935L18.4989 7.83037C18.4548 7.91866 18.4021 7.91866 18.3427 7.83037L16.3393 4.77935C16.2645 4.6605 16.161 4.60107 16.0268 4.60107H13.2441C13.0964 4.60107 13.0217 4.6605 13.0217 4.77935C13.0217 4.82349 13.0369 4.87612 13.0658 4.93555L16.6517 10.2566C16.6805 10.3007 16.6805 10.3449 16.6517 10.3907L13.0658 15.7117C13.0064 15.8 12.9945 15.8781 13.0318 15.946C13.0692 16.0123 13.1388 16.0462 13.2441 16.0462H16.2272C16.3613 16.0462 16.4649 15.9868 16.5396 15.8679L18.4955 12.8899V12.8916Z" fill="#001E50"/>
<path d="M21.0916 11.4365L19.3734 13.878L20.6825 15.8696C20.7572 15.9884 20.8607 16.0479 20.9949 16.0479H23.7997C23.9338 16.0479 24 15.9884 24 15.8696C24 15.8102 23.9848 15.7575 23.9559 15.7134L21.0933 11.4365H21.0916Z" fill="#001E50"/>
<path d="M155.555 49.5107C154.948 49.1847 154.476 48.7297 154.14 48.1422C153.804 47.5565 153.636 46.8824 153.636 46.1184V42.8484C153.636 42.0945 153.804 41.4273 154.14 40.8466C154.476 40.266 154.947 39.8143 155.555 39.4951C156.161 39.1742 156.86 39.0146 157.656 39.0146C158.453 39.0146 159.166 39.1759 159.772 39.4951C160.378 39.816 160.848 40.266 161.186 40.8466C161.523 41.4273 161.691 42.0945 161.691 42.8484V46.1184C161.691 46.8824 161.523 47.5599 161.186 48.1507C160.85 48.7416 160.378 49.1983 159.772 49.5192C159.166 49.8401 158.46 49.9997 157.656 49.9997C156.853 49.9997 156.161 49.8367 155.555 49.5107ZM159.015 47.6159C159.361 47.2594 159.534 46.7857 159.534 46.1948V42.8331C159.534 42.2422 159.365 41.7668 159.023 41.4035C158.682 41.0419 158.225 40.8602 157.656 40.8602C157.088 40.8602 156.645 41.0419 156.303 41.4035C155.962 41.7652 155.792 42.2422 155.792 42.8331V46.1948C155.792 46.7857 155.962 47.2594 156.303 47.6159C156.645 47.9724 157.096 48.1507 157.656 48.1507C158.217 48.1507 158.67 47.9724 159.016 47.6159H159.015Z" fill="#001E50"/>
<path d="M163.775 49.7768C163.74 49.7412 163.723 49.6987 163.723 49.6478V39.3181C163.723 39.2672 163.74 39.2248 163.775 39.1891C163.811 39.1534 163.853 39.1348 163.906 39.1348H167.726C168.49 39.1348 169.159 39.2706 169.735 39.5389C170.31 39.8088 170.755 40.1891 171.073 40.6781C171.388 41.1671 171.546 41.7325 171.546 42.3742V46.5917C171.546 47.2335 171.388 47.7988 171.073 48.2878C170.757 48.7768 170.31 49.1571 169.735 49.4271C169.159 49.697 168.49 49.8312 167.726 49.8312H163.906C163.855 49.8312 163.811 49.8142 163.775 49.7768ZM165.952 47.9822H167.801C168.269 47.9822 168.65 47.8243 168.94 47.5085C169.23 47.1927 169.38 46.7699 169.392 46.2402V42.7257C169.392 42.196 169.247 41.7732 168.957 41.4574C168.667 41.1416 168.276 40.9837 167.787 40.9837H165.954C165.903 40.9837 165.877 41.0092 165.877 41.0601V47.9058C165.877 47.9567 165.903 47.9822 165.954 47.9822H165.952Z" fill="#001E50"/>
<path d="M173.601 49.7768C173.565 49.7412 173.548 49.6987 173.548 49.6478V39.3181C173.548 39.2672 173.565 39.2248 173.601 39.1891C173.636 39.1534 173.679 39.1348 173.731 39.1348H177.552C178.316 39.1348 178.985 39.2706 179.56 39.5389C180.136 39.8088 180.581 40.1891 180.898 40.6781C181.214 41.1671 181.372 41.7325 181.372 42.3742V46.5917C181.372 47.2335 181.214 47.7988 180.898 48.2878C180.582 48.7768 180.136 49.1571 179.56 49.4271C178.985 49.697 178.316 49.8312 177.552 49.8312H173.731C173.681 49.8312 173.636 49.8142 173.601 49.7768ZM175.777 47.9822H177.626C178.095 47.9822 178.475 47.8243 178.766 47.5085C179.056 47.1927 179.205 46.7699 179.217 46.2402V42.7257C179.217 42.196 179.073 41.7732 178.783 41.4574C178.492 41.1416 178.102 40.9837 177.613 40.9837H175.779C175.728 40.9837 175.703 41.0092 175.703 41.0601V47.9058C175.703 47.9567 175.728 47.9822 175.779 47.9822H175.777Z" fill="#001E50"/>
<path d="M184.9 49.5631C184.289 49.3033 183.817 48.9315 183.486 48.4476C183.155 47.9637 182.99 47.4 182.99 46.7582V46.4221C182.99 46.3711 183.007 46.3287 183.043 46.293C183.078 46.2574 183.121 46.2387 183.173 46.2387H184.915C184.966 46.2387 185.009 46.2574 185.044 46.293C185.08 46.3287 185.099 46.3728 185.099 46.4221V46.6513C185.099 47.0588 185.287 47.4017 185.664 47.6836C186.041 47.9637 186.55 48.1029 187.192 48.1029C187.732 48.1029 188.134 47.9892 188.399 47.7583C188.664 47.5291 188.797 47.2472 188.797 46.9094C188.797 46.6649 188.715 46.4594 188.552 46.2913C188.389 46.1232 188.167 45.9755 187.887 45.8482C187.606 45.7209 187.16 45.546 186.549 45.3219C185.866 45.0876 185.289 44.8482 184.815 44.6037C184.341 44.3592 183.944 44.0264 183.623 43.6037C183.302 43.1809 183.143 42.6597 183.143 42.0382C183.143 41.4168 183.301 40.8922 183.617 40.4338C183.932 39.9754 184.37 39.6239 184.931 39.3794C185.491 39.1349 186.138 39.0127 186.871 39.0127C187.645 39.0127 188.335 39.1502 188.943 39.4253C189.549 39.7003 190.022 40.0857 190.364 40.5781C190.705 41.0722 190.875 41.6461 190.875 42.2963V42.5255C190.875 42.5765 190.856 42.6206 190.822 42.6546C190.788 42.6885 190.742 42.7089 190.691 42.7089H188.934C188.883 42.7089 188.839 42.6919 188.805 42.6546C188.769 42.6189 188.751 42.5765 188.751 42.5255V42.4033C188.751 41.9754 188.574 41.6121 188.224 41.3116C187.873 41.0111 187.391 40.8599 186.78 40.8599C186.301 40.8599 185.926 40.9618 185.657 41.1656C185.387 41.3693 185.252 41.6494 185.252 42.006C185.252 42.2607 185.33 42.4746 185.489 42.6478C185.647 42.821 185.881 42.9755 186.192 43.1147C186.503 43.2522 186.985 43.439 187.635 43.6733C188.359 43.9381 188.927 44.1724 189.34 44.3762C189.753 44.5799 190.124 44.8838 190.455 45.2845C190.787 45.6869 190.951 46.2098 190.951 46.8516C190.951 47.8092 190.6 48.5664 189.897 49.1216C189.194 49.6768 188.241 49.9536 187.039 49.9536C186.224 49.9536 185.511 49.8245 184.9 49.5648V49.5631Z" fill="#001E50"/>
</svg>
